<?xml version="1.0" encoding="UTF-8"?> <svg xmlns="http://www.w3.org/2000/svg" width="210" height="280" viewBox="0 0 210 280" fill="none"><rect x="-210" y="-70" width="420" height="420" rx="210" fill="#FFD36A"></rect><path d="M71 172.5V95H156V172.5C156 175.815 154.683 178.995 152.339 181.339C149.995 183.683 146.815 185 143.5 185H58.5M121 115H136V135H121V115ZM86 155H141H86ZM86 135H106H86ZM86 115H106H86ZM71 172.5C71 175.815 69.683 178.995 67.3388 181.339C64.9946 183.683 61.8152 185 58.5 185C55.1848 185 52.0054 183.683 49.6612 181.339C47.317 178.995 46 175.815 46 172.5V115H71.125L71 172.5Z" stroke="white" stroke-width="8"></path></svg> 