<?xml version="1.0" encoding="UTF-8"?> <svg xmlns="http://www.w3.org/2000/svg" width="42" height="56" viewBox="0 0 42 56" fill="none"><path fill-rule="evenodd" clip-rule="evenodd" d="M15.768 33.4315V32.4622V32.3068L15.7491 32.1663L15.7364 32.0358L15.7211 31.9426V31.8624L15.708 31.7827L15.6958 31.6596L15.6812 31.5485L15.6645 31.4481L15.6469 31.3396L15.6208 31.2219L15.596 31.1139L15.5756 31.0066L15.5479 30.8727L15.5231 30.737L15.4891 30.6024L15.4542 30.4533L15.4166 30.3351L15.3887 30.242L15.338 30.0975L15.2723 29.9069L15.2405 29.7759L15.1931 29.6334L15.1174 29.4253L15.0447 29.2521L14.9713 29.0943L14.8734 28.9237L14.7726 28.7778L14.6688 28.6591L14.5865 28.5625L14.5082 28.4771L14.4005 28.3805L14.2741 28.2785L14.1448 28.1784L13.9891 28.0645L13.829 27.982L13.6908 27.9041L13.5228 27.8274L13.3441 27.7635L13.167 27.7148L12.9707 27.6684L12.7136 27.6571L12.4464 27.6474L12.1734 27.6684L11.9212 27.7057L11.6755 27.7648L11.4334 27.8599L11.2242 27.9619L10.9987 28.0811L10.7218 28.2966L10.4988 28.4945L10.2824 28.7953L10.0398 29.1534L9.87878 29.4657L9.79584 29.7147L9.70715 30.0004L9.62225 30.2717L9.54106 30.544L9.46863 30.8101L9.40874 31.0968L9.33243 31.5174L9.28484 31.8893L9.25325 32.3068L9.23505 32.679V33.1406L9.24851 33.4315H15.768ZM4.08028 33.4315L4.05037 33.3922L3.95577 33.2617L3.83859 33.1027L3.687 32.8758L3.53624 32.632L3.35269 32.3539L3.19984 32.0943L3.07538 31.8892L2.92646 31.6054L2.78199 31.3249L2.6319 31.022L2.53454 30.8101L2.41022 30.544L2.29458 30.2717L2.17847 30.0003L2.06476 29.7146L1.9711 29.4252L1.84662 29.0942L1.75422 28.7777L1.66571 28.4945L1.58422 28.1784L1.51921 27.8599L1.45316 27.5825L1.3792 27.26L1.32312 26.9595L1.25266 26.5674L1.20336 26.1946L1.15118 25.8L1.12452 25.3009L1.10063 24.9429V24.5725V24.0837V23.6413L1.12452 23.2081L1.15118 22.7748L1.17127 22.3308L1.10063 22.54L1.01443 22.8405L0.932089 23.2081L0.852291 23.5318L0.788034 23.8355L0.730105 24.1552L0.662599 24.5725L0.626137 25.0252L0.582868 25.4345L0.551937 25.8811L0.519434 26.441V27.0492L0.551937 27.7L0.582868 28.1784L0.626137 28.5624H0.582868L0.519434 28.2965L0.422393 27.9041L0.298765 27.3184L0.193037 26.7762L0.10693 26.1946L0.0459159 25.696L0 25.1989V24.394V23.5318L0.0459159 22.7748L0.156937 21.856L0.330919 20.8487L0.488721 20.1604L0.662599 19.5516L0.904003 18.8781L1.15118 18.235L1.43778 17.5427L1.69429 17.0258L2.03669 16.3905L2.32613 15.91L2.4964 15.6389L2.6663 15.386L2.87253 15.0906L3.12882 14.7341L3.35269 14.4275L3.66981 14.0565L3.99162 13.6805L4.33738 13.3138L4.72438 12.9043L5.02919 12.6089L5.29655 12.3821L5.57231 12.1398L5.90775 11.8648L6.31066 11.5451L6.62397 11.3233L6.9315 11.1022L7.40265 10.8058L8.02266 10.434L8.57126 10.1241L9.26641 9.79542L9.97818 9.50683L10.6753 9.24094L11.3745 9.02003L12.0283 8.85272L12.7866 8.69226L13.5849 8.55457L14.5703 8.4657L15.3213 8.42562L15.4036 8.32509L15.6808 8.02965L16.0431 7.61604L16.5597 7.17608L17.2273 6.67386L17.8415 6.28658L18.6098 5.8744L19.2631 5.59171L19.9284 5.37073L20.7017 5.16971L21.3667 5.04561L22.1212 5H22.8127L23.5902 5.04561L24.3713 5.16971L25.1338 5.37073L26.1634 5.71339L27.0666 6.14604L27.9056 6.67386L28.5992 7.17608L29.2196 7.76376L29.7404 8.35463L30.4433 9.24094L31.0078 10.0763L31.4863 10.8058L31.9183 11.5451L32.3656 12.3135L32.8133 13.3475L33.1772 14.2535L33.5492 15.2383L33.8242 16.2428L34.0671 17.3212L34.2887 18.3163L34.3561 19.1085L34.4565 19.9423L34.5 20.6627V21.3833V22.0038L34.4565 22.671L34.4174 23.2686L34.3561 23.8355L34.2887 24.394L34.2042 24.8399L34.129 25.2806L33.9946 25.8811L33.8687 26.3931L33.7367 26.908L33.5492 27.5261L33.3871 28.0211L33.1772 28.604L32.9691 29.1238L32.7511 29.6177L32.5184 30.1406L32.3028 30.5637L32.0609 31.0065L31.8592 31.3811L31.6124 31.7827L31.3297 32.2445L31.1503 32.5247L30.9306 32.8758L30.6749 33.2086L30.5116 33.4315H33.1091C33.3241 33.4315 33.4984 33.6062 33.4984 33.8217C33.4984 34.0372 33.3241 34.2119 33.1091 34.2119H1.50216C1.28718 34.2119 1.1129 34.0372 1.1129 33.8217C1.1129 33.6062 1.28718 33.4315 1.50216 33.4315H4.08028ZM27.4471 33.4317L27.5471 33.2916L27.732 33.0533L27.9737 32.6973L28.2419 32.2448L28.5014 31.7409L28.7646 31.2216L29.0667 30.483L29.2925 29.8728L29.4279 29.2704L29.5805 28.4947L29.6958 27.6686L29.7402 26.8292V26.1949V25.7834L29.6958 25.32L29.6458 24.9224L29.5805 24.5194L29.5272 24.1554L29.4279 23.7875L29.2925 23.4517L29.0667 23.0676L28.8364 22.7751L28.5991 22.5653L28.3752 22.3646L28.1403 22.2307L27.9054 22.1227H27.8265L27.4305 22.3646L27.0664 22.5653L26.7106 22.7751L26.3087 22.9494L25.9282 23.1267L25.4865 23.2689L25.0557 23.4082L24.5859 23.5321L24.2914 23.5994L24.1229 23.8357L23.8697 24.2065L23.6509 24.5728L23.4414 24.9615L23.2181 25.4191L23.0124 25.8813L22.8126 26.3934L22.6711 26.8292L22.5149 27.4484L22.3812 27.9043L22.2287 28.7101L22.1637 29.5967V30.7229L22.2287 31.6057L22.319 32.2448L22.4789 32.9841L22.5807 33.4317H27.4471ZM26.9322 14.2542C27.5468 14.2542 28.0451 13.755 28.0451 13.1392C28.0451 12.5234 27.5468 12.0243 26.9322 12.0243C26.3175 12.0243 25.8192 12.5234 25.8192 13.1392C25.8192 13.755 26.3175 14.2542 26.9322 14.2542ZM5.52125 51C4.74279 51 4.0124 50.8615 3.33005 50.5845C2.6477 50.3075 2.06266 49.9305 1.57493 49.4536C1.08719 48.9767 0.702772 48.4034 0.421662 47.7338C0.140553 47.0642 0 46.3512 0 45.5949C0 44.8386 0.140553 44.1256 0.421662 43.456C0.702772 42.7864 1.08719 42.2132 1.57493 41.7362C2.06266 41.2593 2.6477 40.8824 3.33005 40.6054C4.0124 40.3284 4.74279 40.1899 5.52125 40.1899C6.2949 40.1899 7.02169 40.3272 7.70164 40.6018C8.38159 40.8763 8.96302 41.2533 9.44595 41.7326C9.92888 42.212 10.3097 42.7852 10.5884 43.4524C10.8671 44.1196 11.0065 44.8338 11.0065 45.5949C11.0065 46.3561 10.8671 47.0702 10.5884 47.7374C10.3097 48.4046 9.92888 48.9779 9.44595 49.4572C8.96302 49.9365 8.38159 50.3135 7.70164 50.5881C7.02169 50.8627 6.2949 51 5.52125 51ZM3.20759 47.9435C3.83227 48.5746 4.60351 48.8901 5.52132 48.8901C6.43913 48.8901 7.20557 48.5758 7.82064 47.9471C8.43572 47.3184 8.74325 46.5344 8.74325 45.595C8.74325 44.6557 8.43572 43.8729 7.82064 43.2466C7.20557 42.6203 6.43913 42.3072 5.52132 42.3072C4.60351 42.3072 3.83227 42.6227 3.20759 43.2538C2.5829 43.8849 2.27056 44.6653 2.27056 45.595C2.27056 46.5248 2.5829 47.3076 3.20759 47.9435ZM18.8423 50.776L16.8241 47.2425H15.3897V50.776H13.1553V40.4139H17.3287C18.3666 40.4139 19.2279 40.7378 19.9127 41.3858C20.5975 42.0337 20.9398 42.8539 20.9398 43.8462C20.9398 44.5158 20.7716 45.1144 20.4353 45.6419C20.0989 46.1694 19.64 46.5752 19.0586 46.8595L21.3435 50.776H18.8423ZM15.3898 42.4877V45.1686H17.1773C17.6386 45.1686 18.0038 45.0445 18.2729 44.7964C18.542 44.5483 18.6766 44.2268 18.6766 43.8317C18.6766 43.4367 18.542 43.114 18.2729 42.8635C18.0038 42.613 17.6386 42.4877 17.1773 42.4877H15.3898ZM23.3052 50.776V40.4139H25.5397V50.776H23.3052ZM30.5356 48.6949H34.5V50.776H28.3012V40.4139H30.5356V48.6949Z" fill="white"></path></svg> 