<?xml version="1.0" encoding="UTF-8"?> <svg xmlns="http://www.w3.org/2000/svg" width="36" height="46" viewBox="0 0 36 46" fill="none"><path fill-rule="evenodd" clip-rule="evenodd" d="M16.268 28.4315V27.4622V27.3068L16.2491 27.1663L16.2364 27.0358L16.2211 26.9426V26.8624L16.208 26.7827L16.1958 26.6596L16.1812 26.5485L16.1645 26.4481L16.1469 26.3396L16.1208 26.2219L16.096 26.1139L16.0756 26.0066L16.0479 25.8727L16.0231 25.737L15.9891 25.6024L15.9542 25.4533L15.9166 25.3351L15.8887 25.242L15.838 25.0975L15.7723 24.9069L15.7405 24.7759L15.6931 24.6334L15.6174 24.4253L15.5447 24.2521L15.4713 24.0943L15.3734 23.9237L15.2726 23.7778L15.1688 23.6591L15.0865 23.5625L15.0082 23.4771L14.9005 23.3805L14.7741 23.2785L14.6448 23.1784L14.4891 23.0645L14.329 22.982L14.1908 22.9041L14.0228 22.8274L13.8441 22.7635L13.667 22.7148L13.4707 22.6684L13.2136 22.6571L12.9464 22.6474L12.6734 22.6684L12.4212 22.7057L12.1755 22.7648L11.9334 22.8599L11.7242 22.9619L11.4987 23.0811L11.2218 23.2966L10.9988 23.4945L10.7824 23.7953L10.5398 24.1534L10.3788 24.4657L10.2958 24.7147L10.2071 25.0004L10.1223 25.2717L10.0411 25.544L9.96863 25.8101L9.90874 26.0968L9.83243 26.5174L9.78484 26.8893L9.75325 27.3068L9.73505 27.679V28.1406L9.74851 28.4315H16.268ZM4.58028 28.4315L4.55037 28.3922L4.45577 28.2617L4.33859 28.1027L4.187 27.8758L4.03624 27.632L3.85269 27.3539L3.69984 27.0943L3.57538 26.8892L3.42646 26.6054L3.28199 26.3249L3.1319 26.022L3.03454 25.8101L2.91022 25.544L2.79458 25.2717L2.67847 25.0003L2.56476 24.7146L2.4711 24.4252L2.34662 24.0942L2.25422 23.7777L2.16571 23.4945L2.08422 23.1784L2.01921 22.8599L1.95316 22.5825L1.8792 22.26L1.82312 21.9595L1.75266 21.5674L1.70336 21.1946L1.65118 20.8L1.62452 20.3009L1.60063 19.9429V19.5725V19.0837V18.6413L1.62452 18.2081L1.65118 17.7748L1.67127 17.3308L1.60063 17.54L1.51443 17.8405L1.43209 18.2081L1.35229 18.5318L1.28803 18.8355L1.23011 19.1552L1.1626 19.5725L1.12614 20.0252L1.08287 20.4345L1.05194 20.8811L1.01943 21.441V22.0492L1.05194 22.7L1.08287 23.1784L1.12614 23.5624H1.08287L1.01943 23.2965L0.922393 22.9041L0.798765 22.3184L0.693037 21.7762L0.60693 21.1946L0.545916 20.696L0.5 20.1989V19.394V18.5318L0.545916 17.7748L0.656937 16.856L0.830919 15.8487L0.988721 15.1604L1.1626 14.5516L1.404 13.8781L1.65118 13.235L1.93778 12.5427L2.19429 12.0258L2.53669 11.3905L2.82613 10.91L2.9964 10.6389L3.1663 10.386L3.37253 10.0906L3.62882 9.73412L3.85269 9.42749L4.16981 9.05654L4.49162 8.68052L4.83738 8.31384L5.22438 7.90434L5.52919 7.6089L5.79655 7.38209L6.07231 7.13981L6.40775 6.86481L6.81066 6.54507L7.12397 6.32328L7.4315 6.10218L7.90265 5.80579L8.52266 5.434L9.07126 5.12409L9.76641 4.79542L10.4782 4.50683L11.1753 4.24094L11.8745 4.02003L12.5283 3.85272L13.2866 3.69226L14.0849 3.55457L15.0703 3.4657L15.8213 3.42562L15.9036 3.32509L16.1808 3.02965L16.5431 2.61604L17.0597 2.17608L17.7273 1.67386L18.3415 1.28658L19.1098 0.874397L19.7631 0.591708L20.4284 0.370733L21.2017 0.169707L21.8667 0.0456081L22.6212 0H23.3127L24.0902 0.0456081L24.8713 0.169707L25.6338 0.370733L26.6634 0.713386L27.5666 1.14604L28.4056 1.67386L29.0992 2.17608L29.7196 2.76376L30.2404 3.35463L30.9433 4.24094L31.5078 5.07626L31.9863 5.80579L32.4183 6.54507L32.8656 7.31347L33.3133 8.34749L33.6772 9.25345L34.0492 10.2383L34.3242 11.2428L34.5671 12.3212L34.7887 13.3163L34.8561 14.1085L34.9565 14.9423L35 15.6627V16.3833V17.0038L34.9565 17.671L34.9174 18.2686L34.8561 18.8355L34.7887 19.394L34.7042 19.8399L34.629 20.2806L34.4946 20.8811L34.3687 21.3931L34.2367 21.908L34.0492 22.5261L33.8871 23.0211L33.6772 23.604L33.4691 24.1238L33.2511 24.6177L33.0184 25.1406L32.8028 25.5637L32.5609 26.0065L32.3592 26.3811L32.1124 26.7827L31.8297 27.2445L31.6503 27.5247L31.4306 27.8758L31.1749 28.2086L31.0116 28.4315H33.6091C33.8241 28.4315 33.9984 28.6062 33.9984 28.8217C33.9984 29.0372 33.8241 29.2119 33.6091 29.2119H2.00216C1.78718 29.2119 1.6129 29.0372 1.6129 28.8217C1.6129 28.6062 1.78718 28.4315 2.00216 28.4315H4.58028ZM27.9471 28.4317L28.0471 28.2916L28.232 28.0533L28.4737 27.6973L28.7419 27.2448L29.0014 26.7409L29.2646 26.2216L29.5667 25.483L29.7925 24.8728L29.9279 24.2704L30.0805 23.4947L30.1958 22.6686L30.2402 21.8292V21.1949V20.7834L30.1958 20.32L30.1458 19.9224L30.0805 19.5194L30.0272 19.1554L29.9279 18.7875L29.7925 18.4517L29.5667 18.0676L29.3364 17.7751L29.0991 17.5653L28.8752 17.3646L28.6403 17.2307L28.4054 17.1227H28.3265L27.9305 17.3646L27.5664 17.5653L27.2106 17.7751L26.8087 17.9494L26.4282 18.1267L25.9865 18.2689L25.5557 18.4082L25.0859 18.5321L24.7914 18.5994L24.6229 18.8357L24.3697 19.2065L24.1509 19.5728L23.9414 19.9615L23.7181 20.4191L23.5124 20.8813L23.3126 21.3934L23.1711 21.8292L23.0149 22.4484L22.8812 22.9043L22.7287 23.7101L22.6637 24.5967V25.7229L22.7287 26.6057L22.819 27.2448L22.9789 27.9841L23.0807 28.4317H27.9471ZM27.4322 9.25418C28.0468 9.25418 28.5451 8.75499 28.5451 8.13922C28.5451 7.52344 28.0468 7.02426 27.4322 7.02426C26.8175 7.02426 26.3192 7.52344 26.3192 8.13922C26.3192 8.75499 26.8175 9.25418 27.4322 9.25418ZM6.02125 46C5.24279 46 4.5124 45.8615 3.83005 45.5845C3.1477 45.3075 2.56266 44.9305 2.07493 44.4536C1.58719 43.9767 1.20277 43.4034 0.921662 42.7338C0.640553 42.0642 0.5 41.3512 0.5 40.5949C0.5 39.8386 0.640553 39.1256 0.921662 38.456C1.20277 37.7864 1.58719 37.2132 2.07493 36.7362C2.56266 36.2593 3.1477 35.8824 3.83005 35.6054C4.5124 35.3284 5.24279 35.1899 6.02125 35.1899C6.7949 35.1899 7.52169 35.3272 8.20164 35.6018C8.88159 35.8763 9.46302 36.2533 9.94595 36.7326C10.4289 37.212 10.8097 37.7852 11.0884 38.4524C11.3671 39.1196 11.5065 39.8338 11.5065 40.5949C11.5065 41.3561 11.3671 42.0702 11.0884 42.7374C10.8097 43.4046 10.4289 43.9779 9.94595 44.4572C9.46302 44.9365 8.88159 45.3135 8.20164 45.5881C7.52169 45.8627 6.7949 46 6.02125 46ZM3.70759 42.9435C4.33227 43.5746 5.10351 43.8901 6.02132 43.8901C6.93913 43.8901 7.70557 43.5758 8.32064 42.9471C8.93572 42.3184 9.24325 41.5344 9.24325 40.595C9.24325 39.6557 8.93572 38.8729 8.32064 38.2466C7.70557 37.6203 6.93913 37.3072 6.02132 37.3072C5.10351 37.3072 4.33227 37.6227 3.70759 38.2538C3.0829 38.8849 2.77056 39.6653 2.77056 40.595C2.77056 41.5248 3.0829 42.3076 3.70759 42.9435ZM19.3423 45.776L17.3241 42.2425H15.8897V45.776H13.6553V35.4139H17.8287C18.8666 35.4139 19.7279 35.7378 20.4127 36.3858C21.0975 37.0337 21.4398 37.8539 21.4398 38.8462C21.4398 39.5158 21.2716 40.1144 20.9353 40.6419C20.5989 41.1694 20.14 41.5752 19.5586 41.8595L21.8435 45.776H19.3423ZM15.8898 37.4877V40.1686H17.6773C18.1386 40.1686 18.5038 40.0445 18.7729 39.7964C19.042 39.5483 19.1766 39.2268 19.1766 38.8317C19.1766 38.4367 19.042 38.114 18.7729 37.8635C18.5038 37.613 18.1386 37.4877 17.6773 37.4877H15.8898ZM23.8052 45.776V35.4139H26.0397V45.776H23.8052ZM31.0356 43.6949H35V45.776H28.8012V35.4139H31.0356V43.6949Z" fill="#FFD36A"></path></svg> 