<svg width="16" height="16" viewBox="0 0 16 16" fill="none" xmlns="http://www.w3.org/2000/svg">
<path fill-rule="evenodd" clip-rule="evenodd" d="M0.999106 8.0001C0.999106 8.13271 1.05178 8.25989 1.14555 8.35365C1.23932 8.44742 1.3665 8.5001 1.49911 8.5001L13.2921 8.5001L10.1451 11.6461C10.0986 11.6926 10.0617 11.7478 10.0366 11.8085C10.0114 11.8693 9.99847 11.9344 9.99847 12.0001C9.99847 12.0658 10.0114 12.1309 10.0366 12.1917C10.0617 12.2524 10.0986 12.3076 10.1451 12.3541C10.1916 12.4006 10.2468 12.4375 10.3075 12.4626C10.3683 12.4878 10.4334 12.5007 10.4991 12.5007C10.5649 12.5007 10.63 12.4878 10.6907 12.4626C10.7514 12.4375 10.8066 12.4006 10.8531 12.3541L14.8531 8.3541C14.8997 8.30766 14.9366 8.25248 14.9618 8.19173C14.987 8.13099 15 8.06587 15 8.0001C15 7.93433 14.987 7.86921 14.9618 7.80847C14.9366 7.74772 14.8997 7.69255 14.8531 7.6461L10.8531 3.6461C10.8066 3.59961 10.7514 3.56274 10.6907 3.53758C10.63 3.51242 10.5649 3.49947 10.4991 3.49947C10.4334 3.49947 10.3683 3.51242 10.3075 3.53758C10.2468 3.56274 10.1916 3.59961 10.1451 3.6461C10.0986 3.69259 10.0617 3.74778 10.0366 3.80852C10.0114 3.86926 9.99847 3.93436 9.99847 4.0001C9.99847 4.06584 10.0114 4.13095 10.0366 4.19168C10.0617 4.25242 10.0986 4.30761 10.1451 4.3541L13.2921 7.5001L1.49911 7.5001C1.3665 7.5001 1.23932 7.55278 1.14555 7.64655C1.05178 7.74032 0.999106 7.86749 0.999106 8.0001Z" fill="white"/>
</svg>
