<?xml version="1.0" encoding="UTF-8"?> <svg xmlns="http://www.w3.org/2000/svg" width="24" height="16" viewBox="0 0 24 16" fill="none"><path fill-rule="evenodd" clip-rule="evenodd" d="M11.7082 10.2308C11.7082 9.47224 11.5386 8.82616 11.1991 8.29406C10.862 7.76008 10.3576 7.37227 9.69281 7.12601C10.1317 6.8998 10.4632 6.64918 10.6877 6.37367C11.0911 5.88227 11.2915 5.2355 11.2915 4.42719C11.2915 3.64383 11.0935 2.96989 10.694 2.40824C10.0281 1.49249 8.90051 1.02618 7.31 1H1V14.2214H6.88429C7.54643 14.2214 8.16113 14.1614 8.72905 14.0427C9.29517 13.9242 9.78762 13.7024 10.2036 13.3789C10.5729 13.0992 10.8803 12.7517 11.1278 12.3404C11.517 11.7188 11.7082 11.0152 11.7082 10.2308ZM14.702 2.87107H19.9635H19.9639V1.54858H14.702V2.87107ZM4.01372 6.21285H6.7785C7.34666 6.21285 7.80596 6.10357 8.15971 5.88512C8.51322 5.66701 8.68961 5.27931 8.68961 4.72265C8.68961 4.10765 8.45605 3.69944 7.98782 3.50297C7.58535 3.36647 7.07039 3.29618 6.44554 3.29618H4.01372V6.21285ZM8.12476 8.62531C8.67843 8.88007 8.95582 9.35487 8.95582 10.0417C8.95582 10.856 8.6693 11.4045 8.09791 11.6928C7.78106 11.8495 7.34203 11.9247 6.77479 11.9247H4.01372V8.40122H6.81819C7.3783 8.40651 7.81514 8.48051 8.12476 8.62531ZM21.917 7.89112C21.9805 8.32368 22.0093 8.95128 21.9976 9.77159H15.1834C15.221 10.7234 15.5457 11.389 16.1615 11.7698C16.5329 12.0087 16.9832 12.1253 17.5104 12.1253C18.0664 12.1253 18.5195 11.9831 18.8684 11.6907C19.0584 11.5358 19.2261 11.317 19.371 11.041H21.8687C21.8032 11.6032 21.5025 12.1733 20.9621 12.7527C20.1247 13.6736 18.9504 14.1353 17.4423 14.1353C16.1964 14.1353 15.0984 13.7459 14.1453 12.9699C13.1954 12.1911 12.7184 10.9281 12.7184 9.17605C12.7184 7.5331 13.1466 6.27558 14.0061 5.40028C14.8688 4.52336 15.9821 4.08689 17.3544 4.08689C18.1677 4.08689 18.901 4.23401 19.5551 4.52978C20.2072 4.82584 20.7461 5.2918 21.1706 5.93219C21.5547 6.49616 21.8017 7.14826 21.917 7.89112ZM18.8043 6.64109C19.1953 6.98152 19.4124 7.47964 19.4582 8.13777V8.13782H15.2417C15.3304 7.51936 15.5466 7.03087 15.8941 6.67157C16.2392 6.31153 16.725 6.12835 17.354 6.12835C17.9321 6.12835 18.4165 6.29973 18.8043 6.64109Z" fill="#FFB248"></path></svg> 