<?xml version="1.0" encoding="UTF-8"?> <svg xmlns="http://www.w3.org/2000/svg" width="24" height="24" viewBox="0 0 24 24" fill="none"><path d="M9.72916 6.48603C9.72916 6.93963 9.72916 8.96427 9.72916 8.96427H8V11.9947H9.72916V21H13.2812V11.9949H15.6648C15.6648 11.9949 15.888 10.5419 15.9963 8.9531C15.686 8.9531 13.2946 8.9531 13.2946 8.9531C13.2946 8.9531 13.2946 7.1901 13.2946 6.88109C13.2946 6.5714 13.6819 6.15483 14.0647 6.15483C14.4468 6.15483 15.2531 6.15483 16 6.15483C16 5.74223 16 4.31663 16 3C15.003 3 13.8687 3 13.3687 3C9.64135 2.99979 9.72916 6.03321 9.72916 6.48603Z" fill="#FFB248"></path></svg> 