<?xml version="1.0" encoding="UTF-8"?> <svg xmlns="http://www.w3.org/2000/svg" width="24" height="24" viewBox="0 0 24 24" fill="none"><path fill-rule="evenodd" clip-rule="evenodd" d="M15.6875 4H9.3125C6.37734 4 4 6.37734 4 9.3125V15.6875C4 18.6227 6.37734 21 9.3125 21H15.6875C18.6227 21 21 18.6227 21 15.6875V9.3125C21 6.37734 18.6227 4 15.6875 4ZM16.4537 12.5892C16.4537 14.774 14.6839 16.5437 12.4992 16.5437C10.3144 16.5437 8.54468 14.774 8.54468 12.5892V12.4099C8.54468 10.2252 10.3144 8.45544 12.4992 8.45544C14.6839 8.45544 16.4537 10.2252 16.4537 12.4099V12.5892ZM16.6379 7.54609C16.6379 8.01758 17.0198 8.39941 17.4913 8.39941C17.9627 8.39941 18.3446 8.01426 18.3446 7.54277C18.3446 7.07129 17.9627 6.68945 17.4913 6.68945C17.0198 6.68945 16.6379 7.07461 16.6379 7.54609Z" fill="#FFB248"></path></svg> 