<?xml version="1.0" encoding="UTF-8"?> <svg xmlns="http://www.w3.org/2000/svg" width="24" height="24" viewBox="0 0 24 24" fill="none"><path fill-rule="evenodd" clip-rule="evenodd" d="M5.9766 3C4.78162 3 4 3.85593 4 4.98151C4 6.08256 4.759 6.96446 5.93023 6.96446H5.95357C7.17169 6.96446 7.92925 6.08272 7.92925 4.98151C7.9063 3.85593 7.17169 3 5.9766 3ZM20.2913 13.4226V20H16.7994V13.8631C16.7994 12.3214 16.2943 11.2693 15.0304 11.2693C14.0655 11.2693 13.4913 11.9784 13.2387 12.6643C13.1466 12.9095 13.1229 13.2508 13.1229 13.594V20H9.62977C9.62977 20 9.67682 9.60607 9.62977 8.52918H13.1225V10.1551C13.1192 10.1609 13.1154 10.1668 13.1116 10.1728C13.1073 10.1794 13.1031 10.186 13.0996 10.1922H13.1225V10.1551C13.5866 9.37464 14.4153 8.2597 16.2703 8.2597C18.5684 8.25966 20.2913 9.89917 20.2913 13.4226ZM7.69928 20.0001H4.20752V8.52924H7.69928V20.0001Z" fill="#FFB248"></path></svg> 