<?xml version="1.0" encoding="UTF-8"?> <svg xmlns="http://www.w3.org/2000/svg" width="24" height="24" viewBox="0 0 24 24" fill="none"><path d="M21.7 6.75474C21.0117 7.05252 20.2732 7.25446 19.4973 7.34462C20.2896 6.88139 20.8961 6.14664 21.1835 5.27382C20.4403 5.7028 19.62 6.0143 18.7459 6.18316C18.046 5.4541 17.0504 5 15.9461 5C13.8276 5 12.1098 6.67718 12.1098 8.74455C12.1098 9.03776 12.1437 9.32414 12.2092 9.59798C9.02141 9.44165 6.19474 7.95046 4.30289 5.68454C3.97219 6.23677 3.78406 6.88023 3.78406 7.56709C3.78406 8.86663 4.46181 10.0133 5.49013 10.6841C4.86145 10.6636 4.27017 10.4947 3.75252 10.2141V10.2608C3.75252 12.0749 5.07531 13.5889 6.82926 13.9335C6.50791 14.0179 6.16904 14.0647 5.81848 14.0647C5.57077 14.0647 5.33121 14.0408 5.09633 13.9951C5.58476 15.484 7.00104 16.5668 8.67907 16.5965C7.36679 17.6005 5.71215 18.1972 3.91496 18.1972C3.60531 18.1972 3.3003 18.1789 3 18.1459C4.69788 19.2104 6.71361 19.831 8.88006 19.831C15.9368 19.831 19.7942 14.1241 19.7942 9.1747L19.7813 8.68981C20.535 8.16494 21.187 7.50549 21.7 6.75474Z" fill="#FFB248"></path></svg> 